<?xml version="1.0" encoding="utf-8"?>
<!-- Generator: Adobe Illustrator 19.0.0, SVG Export Plug-In . SVG Version: 6.00 Build 0)  -->
<svg version="1.1" id="Layer_1" xmlns="http://www.w3.org/2000/svg" xmlns:xlink="http://www.w3.org/1999/xlink" x="0px" y="0px"
	 width="120px" height="50px" viewBox="0 0 120 50" enable-background="new 0 0 120 50" xml:space="preserve">
<rect id="XMLID_5_" x="0" fill="#004AAD" width="120" height="50"/>
<g id="XMLID_1_">
	<ellipse id="XMLID_2_" fill="#FFFFFF" cx="19.288" cy="23.226" rx="13.433" ry="13.226"/>
	<ellipse id="XMLID_3_" fill="#004AAD" cx="19.288" cy="21.191" rx="3.382" ry="4.162"/>
	<ellipse id="XMLID_4_" fill="#004AAD" cx="25.019" cy="21.191" rx="3.382" ry="4.162"/>
	<path id="XMLID_6_" fill="#FFFFFF" d="M12.913,33.514l8.938-6.09c0.536-0.365,1.273-0.022,1.326,0.617l0.888,10.666
		c0.053,0.64-0.617,1.096-1.206,0.822l-9.826-4.576C12.444,34.679,12.377,33.879,12.913,33.514z"/>
	<g id="XMLID_9_">
		<path id="XMLID_75_" fill="#FFFFFF" d="M42.357,29.312c1.204,0,2.31,0.526,3.317,1.578c1.008,1.052,1.512,2.275,1.512,3.666
			c0,1.392-0.501,2.61-1.502,3.656c-1.001,1.046-2.077,1.568-3.226,1.568c-1.15,0-1.968-0.32-2.455-0.959
			c-0.108,0.653-0.69,0.979-1.745,0.979c-0.852,0-1.373-0.18-1.563-0.54c-0.095-0.199-0.152-0.376-0.172-0.529
			c-0.02-0.153-0.03-0.383-0.03-0.689V26.115c0-0.306,0.01-0.536,0.03-0.689c0.021-0.153,0.078-0.323,0.172-0.51
			c0.189-0.359,0.717-0.539,1.583-0.539c0.852,0,1.366,0.18,1.542,0.539c0.108,0.2,0.172,0.377,0.193,0.53
			c0.02,0.153,0.03,0.383,0.03,0.689v4.155C40.584,29.639,41.355,29.312,42.357,29.312z M40.581,35.765
			c0.331,0.36,0.747,0.539,1.248,0.539c0.5,0,0.926-0.18,1.278-0.539c0.352-0.36,0.527-0.759,0.527-1.199
			c0-0.439-0.162-0.842-0.487-1.209c-0.325-0.366-0.758-0.549-1.299-0.549c-0.541,0-0.971,0.187-1.289,0.559
			c-0.318,0.373-0.477,0.776-0.477,1.209C40.084,35.009,40.25,35.405,40.581,35.765z"/>
		<path id="XMLID_78_" fill="#FFFFFF" d="M55.444,30.411c0.081-0.746,0.616-1.119,1.603-1.119c0.528,0,0.92,0.04,1.177,0.12
			c0.257,0.08,0.436,0.22,0.538,0.419c0.101,0.2,0.162,0.376,0.183,0.53c0.02,0.153,0.03,0.383,0.03,0.689v6.992
			c0,0.307-0.01,0.536-0.03,0.689c-0.02,0.153-0.078,0.33-0.172,0.529c-0.189,0.347-0.653,0.52-1.39,0.52
			c-0.738,0-1.231-0.09-1.481-0.269c-0.251-0.18-0.396-0.443-0.436-0.79c-0.501,0.706-1.336,1.059-2.506,1.059
			c-1.17,0-2.256-0.526-3.257-1.578c-1.001-1.052-1.502-2.274-1.502-3.666c0-1.391,0.504-2.61,1.512-3.656
			c1.008-1.045,2.113-1.568,3.317-1.568c0.46,0,0.879,0.08,1.258,0.24c0.379,0.16,0.642,0.31,0.791,0.45
			C55.228,30.141,55.349,30.278,55.444,30.411z M51.751,34.566c0,0.44,0.176,0.836,0.527,1.189c0.352,0.353,0.778,0.53,1.278,0.53
			c0.5,0,0.916-0.18,1.248-0.539c0.331-0.36,0.497-0.756,0.497-1.189c0-0.433-0.159-0.836-0.477-1.209
			c-0.318-0.373-0.744-0.56-1.278-0.56c-0.534,0-0.967,0.187-1.299,0.56C51.917,33.721,51.751,34.127,51.751,34.566z"/>
		<path id="XMLID_81_" fill="#FFFFFF" d="M65.935,36.304h3.47c0.541,0,0.93,0.067,1.166,0.2s0.396,0.326,0.477,0.579
			s0.122,0.586,0.122,0.999s-0.041,0.746-0.122,0.999c-0.081,0.253-0.223,0.43-0.426,0.53s-0.383,0.16-0.538,0.18
			c-0.156,0.02-0.389,0.03-0.7,0.03h-7.325c-0.474,0-0.886-0.173-1.238-0.52c-0.352-0.346-0.528-0.759-0.528-1.238
			c0-0.48,0.176-0.889,0.528-1.229c0.352-0.34,0.893-0.829,1.623-1.469c0.731-0.639,1.393-1.215,1.989-1.728
			c0.595-0.513,0.919-0.796,0.974-0.849h-2.861c-0.771,0-1.258-0.126-1.461-0.379c-0.23-0.293-0.345-0.679-0.345-1.159
			c0-0.479,0.034-0.836,0.102-1.069c0.067-0.233,0.149-0.406,0.243-0.519c0.094-0.113,0.23-0.203,0.406-0.27
			c0.23-0.066,0.582-0.1,1.056-0.1h6.594c0.473,0,0.886,0.166,1.238,0.499c0.352,0.333,0.528,0.749,0.528,1.249
			s-0.203,0.942-0.609,1.328C69.891,32.755,68.437,34.067,65.935,36.304z"/>
		<path id="XMLID_83_" fill="#FFFFFF" d="M79.428,30.411c0.081-0.746,0.616-1.119,1.603-1.119c0.527,0,0.919,0.04,1.176,0.12
			c0.257,0.08,0.437,0.22,0.538,0.419c0.102,0.2,0.162,0.376,0.183,0.53c0.021,0.153,0.031,0.383,0.031,0.689v6.992
			c0,0.307-0.01,0.536-0.031,0.689c-0.021,0.153-0.078,0.33-0.173,0.529c-0.189,0.347-0.653,0.52-1.39,0.52s-1.231-0.09-1.481-0.269
			c-0.251-0.18-0.395-0.443-0.436-0.79c-0.502,0.706-1.336,1.059-2.506,1.059c-1.171,0-2.256-0.526-3.257-1.578
			c-1.001-1.052-1.502-2.274-1.502-3.666c0-1.391,0.504-2.61,1.511-3.656c1.008-1.045,2.114-1.568,3.317-1.568
			c0.46,0,0.879,0.08,1.258,0.24c0.379,0.16,0.643,0.31,0.792,0.45C79.211,30.141,79.334,30.278,79.428,30.411z M75.735,34.566
			c0,0.44,0.176,0.836,0.528,1.189c0.352,0.353,0.778,0.53,1.278,0.53s0.917-0.18,1.247-0.539c0.332-0.36,0.497-0.756,0.497-1.189
			c0-0.433-0.159-0.836-0.476-1.209c-0.318-0.373-0.744-0.56-1.278-0.56s-0.967,0.187-1.299,0.56
			C75.9,33.721,75.735,34.127,75.735,34.566z"/>
		<path id="XMLID_86_" fill="#FFFFFF" d="M91.521,30.411c0.081-0.746,0.615-1.119,1.603-1.119c0.527,0,0.919,0.04,1.177,0.12
			c0.257,0.08,0.436,0.22,0.538,0.419c0.101,0.2,0.162,0.376,0.182,0.53c0.021,0.153,0.031,0.383,0.031,0.689v6.992
			c0,0.307-0.01,0.536-0.031,0.689c-0.02,0.153-0.078,0.33-0.172,0.529c-0.189,0.347-0.653,0.52-1.39,0.52s-1.231-0.09-1.481-0.269
			c-0.25-0.18-0.395-0.443-0.436-0.79c-0.501,0.706-1.336,1.059-2.506,1.059c-1.17,0-2.256-0.526-3.257-1.578
			c-1.001-1.052-1.502-2.274-1.502-3.666c0-1.391,0.504-2.61,1.512-3.656c1.008-1.045,2.113-1.568,3.317-1.568
			c0.46,0,0.879,0.08,1.258,0.24c0.378,0.16,0.642,0.31,0.791,0.45C91.304,30.141,91.427,30.278,91.521,30.411z M87.828,34.566
			c0,0.44,0.176,0.836,0.527,1.189c0.352,0.353,0.778,0.53,1.279,0.53c0.5,0,0.916-0.18,1.247-0.539
			c0.331-0.36,0.497-0.756,0.497-1.189c0-0.433-0.159-0.836-0.477-1.209c-0.318-0.373-0.744-0.56-1.278-0.56
			s-0.967,0.187-1.298,0.56C87.994,33.721,87.828,34.127,87.828,34.566z"/>
		<path id="XMLID_89_" fill="#FFFFFF" d="M103.939,29.412c0.257,0.08,0.47,0.216,0.64,0.41c0.169,0.193,0.254,0.503,0.254,0.929
			c0,0.427-0.129,0.893-0.386,1.399c-0.257,0.506-0.629,0.759-1.116,0.759c-0.244,0-0.477-0.053-0.7-0.16
			c-0.223-0.106-0.517-0.16-0.883-0.16c-0.365,0-0.707,0.127-1.025,0.38c-0.318,0.253-0.476,0.559-0.476,0.919v4.195
			c0,0.307-0.01,0.536-0.031,0.689c-0.02,0.153-0.084,0.33-0.193,0.529c-0.203,0.347-0.731,0.52-1.583,0.52
			c-0.649,0-1.116-0.113-1.4-0.34c-0.216-0.187-0.338-0.473-0.365-0.859c0-0.133,0-0.326,0-0.579V31.03
			c0-0.306,0.01-0.536,0.031-0.689c0.02-0.153,0.078-0.323,0.173-0.509c0.189-0.36,0.717-0.539,1.583-0.539
			c0.812,0,1.319,0.153,1.522,0.459c0.149,0.213,0.223,0.433,0.223,0.659c0.067-0.093,0.165-0.206,0.294-0.34
			c0.128-0.133,0.402-0.313,0.822-0.539c0.419-0.227,0.787-0.34,1.106-0.34c0.318,0,0.585,0.017,0.802,0.05
			C103.445,29.276,103.682,29.332,103.939,29.412z"/>
		<path id="XMLID_91_" fill="#FFFFFF" d="M105.623,38.881c-0.257-0.16-0.386-0.412-0.386-0.759c0-0.346,0.257-0.872,0.771-1.578
			c0.149-0.226,0.389-0.34,0.721-0.34c0.331,0,0.781,0.163,1.349,0.49c0.568,0.326,1.082,0.489,1.542,0.489
			c0.825,0,1.238-0.16,1.238-0.479c0-0.253-0.453-0.44-1.359-0.56c-0.853-0.12-1.698-0.433-2.537-0.939
			c-0.393-0.24-0.717-0.616-0.974-1.129c-0.257-0.513-0.386-1.121-0.386-1.828c0-2.104,1.468-3.156,4.403-3.156
			c0.96,0,1.948,0.227,2.963,0.679c0.473,0.214,0.71,0.48,0.71,0.8c0,0.319-0.149,0.712-0.446,1.178
			c-0.298,0.467-0.602,0.699-0.913,0.699c-0.162,0-0.463-0.1-0.903-0.3c-0.44-0.2-0.917-0.3-1.43-0.3
			c-0.798,0-1.197,0.146-1.197,0.439c0,0.4,0.459,0.659,1.379,0.779c0.893,0.093,1.758,0.347,2.597,0.759
			c0.393,0.187,0.721,0.51,0.985,0.969c0.263,0.459,0.395,1.036,0.395,1.728c0,0.693-0.132,1.282-0.395,1.768
			c-0.264,0.486-0.633,0.849-1.106,1.089c-0.866,0.413-1.951,0.619-3.257,0.619S106.827,39.628,105.623,38.881z"/>
	</g>
</g>
</svg>
