<?xml version="1.0" encoding="utf-8"?>
<!-- Generator: Adobe Illustrator 19.0.0, SVG Export Plug-In . SVG Version: 6.00 Build 0)  -->
<svg version="1.1" id="Layer_1" xmlns="http://www.w3.org/2000/svg" xmlns:xlink="http://www.w3.org/1999/xlink" x="0px" y="0px"
	 width="200px" height="60px" viewBox="0 0 200 60" enable-background="new 0 0 200 60" xml:space="preserve">
<rect id="XMLID_5_" x="0" fill="#004AAD" width="200" height="60"/>
<ellipse id="XMLID_1_" fill="#FFFFFF" cx="26.456" cy="26.087" rx="23.956" ry="23.587"/>
<ellipse id="XMLID_2_" fill="#004AAD" cx="26.456" cy="22.458" rx="6.031" ry="7.422"/>
<ellipse id="XMLID_3_" fill="#004AAD" cx="36.675" cy="22.458" rx="6.031" ry="7.422"/>
<path id="XMLID_4_" fill="#FFFFFF" d="M15.087,44.433l15.939-10.861c0.956-0.651,2.27-0.04,2.365,1.101l1.584,19.021
	c0.095,1.141-1.1,1.955-2.151,1.466L15.301,47C14.25,46.51,14.131,45.084,15.087,44.433z"/>
<g id="XMLID_9_">
	<path id="XMLID_75_" fill="#FFFFFF" d="M67.595,36.939c2.146,0,4.119,0.938,5.916,2.814c1.797,1.877,2.696,4.057,2.696,6.538
		c0,2.482-0.893,4.655-2.678,6.52c-1.786,1.865-3.703,2.797-5.753,2.797c-2.051,0-3.51-0.57-4.378-1.71
		c-0.193,1.164-1.23,1.746-3.112,1.746c-1.52,0-2.449-0.321-2.787-0.963c-0.169-0.355-0.271-0.67-0.308-0.943
		c-0.036-0.273-0.054-0.683-0.054-1.229v-21.27c0-0.545,0.018-0.956,0.054-1.228c0.037-0.273,0.139-0.576,0.308-0.909
		c0.338-0.641,1.278-0.962,2.823-0.962c1.52,0,2.436,0.321,2.75,0.962c0.193,0.356,0.308,0.672,0.344,0.944
		c0.036,0.273,0.054,0.683,0.054,1.229v7.41C64.434,37.522,65.809,36.939,67.595,36.939z M64.428,48.447
		c0.591,0.642,1.333,0.962,2.226,0.962c0.892,0,1.652-0.32,2.28-0.962c0.627-0.642,0.94-1.354,0.94-2.138
		c0-0.783-0.29-1.502-0.868-2.155c-0.579-0.653-1.352-0.979-2.316-0.979c-0.965,0-1.731,0.333-2.298,0.997
		c-0.567,0.665-0.851,1.384-0.851,2.155C63.542,47.1,63.837,47.806,64.428,48.447z"/>
	<path id="XMLID_78_" fill="#FFFFFF" d="M90.934,38.899c0.145-1.33,1.098-1.995,2.859-1.995c0.941,0,1.64,0.071,2.099,0.214
		c0.458,0.143,0.778,0.392,0.959,0.748c0.181,0.356,0.29,0.671,0.326,0.944s0.054,0.683,0.054,1.229v12.47
		c0,0.547-0.018,0.956-0.054,1.229s-0.139,0.588-0.308,0.943c-0.338,0.618-1.164,0.927-2.479,0.927c-1.315,0-2.196-0.16-2.642-0.48
		c-0.447-0.321-0.706-0.79-0.778-1.408c-0.893,1.26-2.382,1.889-4.469,1.889c-2.087,0-4.023-0.938-5.808-2.814
		c-1.786-1.876-2.678-4.056-2.678-6.538c0-2.481,0.898-4.654,2.696-6.52c1.797-1.864,3.769-2.797,5.916-2.797
		c0.82,0,1.568,0.143,2.244,0.428c0.675,0.285,1.146,0.553,1.411,0.802C90.548,38.418,90.765,38.662,90.934,38.899z M84.349,46.31
		c0,0.784,0.313,1.491,0.94,2.12c0.627,0.63,1.387,0.944,2.28,0.944c0.892,0,1.634-0.321,2.226-0.962
		c0.591-0.642,0.887-1.348,0.887-2.12c0-0.771-0.284-1.49-0.851-2.155c-0.567-0.665-1.327-0.998-2.28-0.998
		c-0.953,0-1.725,0.333-2.316,0.998C84.644,44.802,84.349,45.526,84.349,46.31z"/>
	<path id="XMLID_81_" fill="#FFFFFF" d="M109.643,49.409h6.188c0.965,0,1.658,0.119,2.08,0.356s0.706,0.582,0.851,1.033
		s0.218,1.045,0.218,1.781s-0.073,1.33-0.218,1.781s-0.397,0.767-0.76,0.944s-0.683,0.285-0.959,0.32
		c-0.278,0.036-0.694,0.054-1.249,0.054H102.73c-0.845,0-1.58-0.309-2.207-0.927c-0.628-0.617-0.941-1.354-0.941-2.208
		c0-0.855,0.313-1.586,0.941-2.191c0.627-0.605,1.592-1.479,2.895-2.619c1.303-1.14,2.484-2.167,3.547-3.081
		c1.061-0.914,1.64-1.419,1.736-1.515H103.6c-1.375,0-2.244-0.226-2.606-0.677c-0.411-0.522-0.615-1.211-0.615-2.066
		c0-0.854,0.06-1.49,0.181-1.906c0.12-0.415,0.265-0.724,0.434-0.926c0.168-0.202,0.41-0.362,0.723-0.481
		c0.41-0.118,1.037-0.178,1.883-0.178h11.76c0.844,0,1.58,0.297,2.207,0.891s0.941,1.336,0.941,2.227s-0.362,1.681-1.086,2.369
		C116.698,43.08,114.104,45.419,109.643,49.409z"/>
	<path id="XMLID_83_" fill="#FFFFFF" d="M133.705,38.899c0.145-1.33,1.098-1.995,2.859-1.995c0.939,0,1.639,0.071,2.098,0.214
		s0.779,0.392,0.959,0.748c0.182,0.356,0.289,0.671,0.326,0.944s0.055,0.683,0.055,1.229v12.47c0,0.547-0.018,0.956-0.055,1.229
		s-0.139,0.588-0.309,0.943c-0.338,0.618-1.164,0.927-2.479,0.927s-2.195-0.16-2.641-0.48c-0.447-0.321-0.705-0.79-0.777-1.408
		c-0.895,1.26-2.383,1.889-4.469,1.889c-2.088,0-4.023-0.938-5.809-2.814c-1.785-1.876-2.678-4.056-2.678-6.538
		c0-2.481,0.898-4.654,2.695-6.52c1.797-1.864,3.77-2.797,5.916-2.797c0.82,0,1.568,0.143,2.244,0.428s1.146,0.553,1.412,0.802
		C133.318,38.418,133.537,38.662,133.705,38.899z M127.119,46.31c0,0.784,0.314,1.491,0.941,2.12
		c0.627,0.63,1.387,0.944,2.279,0.944s1.635-0.321,2.225-0.962c0.592-0.642,0.887-1.348,0.887-2.12c0-0.771-0.283-1.49-0.85-2.155
		s-1.326-0.998-2.279-0.998s-1.725,0.333-2.316,0.998S127.119,45.526,127.119,46.31z"/>
	<path id="XMLID_86_" fill="#FFFFFF" d="M155.271,38.899c0.145-1.33,1.097-1.995,2.858-1.995c0.94,0,1.64,0.071,2.099,0.214
		c0.458,0.143,0.778,0.392,0.959,0.748s0.289,0.671,0.325,0.944c0.037,0.273,0.055,0.683,0.055,1.229v12.47
		c0,0.547-0.018,0.956-0.055,1.229c-0.036,0.273-0.139,0.588-0.308,0.943c-0.338,0.618-1.164,0.927-2.479,0.927
		s-2.195-0.16-2.642-0.48c-0.446-0.321-0.705-0.79-0.777-1.408c-0.894,1.26-2.383,1.889-4.469,1.889
		c-2.087,0-4.023-0.938-5.809-2.814c-1.785-1.876-2.678-4.056-2.678-6.538c0-2.481,0.898-4.654,2.696-6.52
		c1.797-1.864,3.769-2.797,5.916-2.797c0.82,0,1.568,0.143,2.244,0.428c0.675,0.285,1.146,0.553,1.411,0.802
		C154.885,38.418,155.103,38.662,155.271,38.899z M148.686,46.31c0,0.784,0.313,1.491,0.94,2.12c0.627,0.63,1.387,0.944,2.28,0.944
		c0.892,0,1.634-0.321,2.225-0.962c0.591-0.642,0.887-1.348,0.887-2.12c0-0.771-0.283-1.49-0.851-2.155
		c-0.566-0.665-1.326-0.998-2.279-0.998s-1.725,0.333-2.315,0.998C148.98,44.802,148.686,45.526,148.686,46.31z"/>
	<path id="XMLID_89_" fill="#FFFFFF" d="M177.416,37.118c0.458,0.143,0.839,0.386,1.141,0.73c0.301,0.344,0.452,0.896,0.452,1.656
		c0,0.761-0.229,1.592-0.688,2.494c-0.459,0.902-1.122,1.354-1.99,1.354c-0.435,0-0.851-0.095-1.248-0.285
		c-0.398-0.189-0.923-0.285-1.574-0.285s-1.261,0.227-1.828,0.678c-0.566,0.451-0.85,0.997-0.85,1.639v7.481
		c0,0.547-0.019,0.956-0.055,1.229s-0.15,0.588-0.344,0.943c-0.361,0.618-1.303,0.927-2.822,0.927c-1.158,0-1.99-0.201-2.497-0.605
		c-0.386-0.333-0.604-0.843-0.651-1.532c0-0.237,0-0.582,0-1.033V40.004c0-0.546,0.019-0.956,0.055-1.229
		c0.036-0.272,0.139-0.575,0.308-0.908c0.337-0.642,1.278-0.962,2.822-0.962c1.447,0,2.352,0.273,2.714,0.819
		c0.266,0.38,0.398,0.772,0.398,1.176c0.12-0.166,0.295-0.368,0.524-0.605c0.229-0.237,0.718-0.559,1.466-0.962
		c0.747-0.404,1.404-0.606,1.972-0.606c0.566,0,1.043,0.03,1.43,0.09C176.535,36.875,176.958,36.976,177.416,37.118z"/>
	<path id="XMLID_91_" fill="#FFFFFF" d="M180.419,54.005c-0.458-0.285-0.688-0.735-0.688-1.354c0-0.617,0.458-1.556,1.375-2.814
		c0.266-0.403,0.693-0.605,1.285-0.605c0.591,0,1.393,0.291,2.406,0.873c1.013,0.582,1.93,0.872,2.75,0.872
		c1.471,0,2.207-0.285,2.207-0.854c0-0.451-0.809-0.784-2.424-0.998c-1.521-0.214-3.028-0.771-4.523-1.674
		c-0.7-0.428-1.279-1.099-1.737-2.014c-0.458-0.914-0.688-2-0.688-3.26c0-3.752,2.617-5.629,7.853-5.629
		c1.713,0,3.474,0.404,5.283,1.211c0.844,0.381,1.267,0.855,1.267,1.426c0,0.569-0.266,1.271-0.796,2.102
		c-0.531,0.832-1.074,1.247-1.629,1.247c-0.289,0-0.826-0.178-1.61-0.534s-1.635-0.534-2.551-0.534
		c-1.424,0-2.135,0.261-2.135,0.783c0,0.713,0.819,1.176,2.46,1.39c1.593,0.166,3.136,0.618,4.632,1.354
		c0.7,0.333,1.285,0.909,1.756,1.729c0.47,0.819,0.705,1.847,0.705,3.081c0,1.235-0.235,2.287-0.705,3.153
		c-0.471,0.867-1.129,1.515-1.973,1.941C191.396,55.633,189.46,56,187.132,56S182.566,55.336,180.419,54.005z"/>
</g>
</svg>
